<svg xmlns="http://www.w3.org/2000/svg" viewBox="0 0 160 130" fill="none">
  <defs>
    <filter id="softPaint" x="-25%" y="-35%" width="150%" height="170%" color-interpolation-filters="sRGB">
      <feGaussianBlur stdDeviation="1.8" result="blur"/>
      <feColorMatrix in="blur" type="matrix" values="1.18 0 0 0 0  0 0.86 0 0 0  0 0 0.9 0 0  0 0 0 1 0"/>
    </filter>
    <radialGradient id="petalRed" cx="50%" cy="42%" r="65%">
      <stop offset="0" stop-color="#f33a3d"/>
      <stop offset="0.5" stop-color="#bd001e"/>
      <stop offset="1" stop-color="#53051a"/>
    </radialGradient>
    <radialGradient id="deepRed" cx="46%" cy="48%" r="60%">
      <stop offset="0" stop-color="#c8001f"/>
      <stop offset="0.66" stop-color="#710014"/>
      <stop offset="1" stop-color="#24000b"/>
    </radialGradient>
  </defs>

  <g filter="url(#softPaint)" opacity="0.96">
    <path d="M31 70c7-22 28-35 50-31 23 4 40 20 50 41-17-5-34-3-50 7-16-9-33-14-50-17Z" fill="url(#deepRed)" opacity="0.55"/>
    <path d="M20 66c14-28 42-41 66-32 18 7 33 24 44 51-20-7-38-3-53 12-15-16-34-26-57-31Z" fill="#9b001b" opacity="0.45"/>
    <path d="M35 54c9-27 28-39 50-35 21 4 34 21 42 48-18-8-34-6-48 9-11-14-26-21-44-22Z" fill="url(#petalRed)"/>
    <path d="M14 76c16-13 32-19 50-18 14 1 28 8 42 20-31 19-62 18-92-2Z" fill="#bd001e" opacity="0.9"/>
    <path d="M55 39c10-22 27-29 48-22 9 13 8 28-4 46-15-9-30-17-44-24Z" fill="#e9002b" opacity="0.92"/>
    <path d="M78 28c20-13 38-8 52 14-4 18-15 31-32 39-1-21-7-38-20-53Z" fill="#c00020" opacity="0.9"/>
    <path d="M42 44c-1-19 9-32 30-38 14 12 20 27 18 46-18-10-34-13-48-8Z" fill="#ff3443" opacity="0.82"/>
    <path d="M27 57c-7-13-3-25 13-36 17 3 29 13 37 30-19-3-36-1-50 6Z" fill="#b3001b" opacity="0.9"/>
    <path d="M92 48c17-8 33-7 47 4 1 15-7 26-25 34-4-17-11-30-22-38Z" fill="#8e0018" opacity="0.82"/>
    <path d="M48 74c17 8 35 9 55 2-8 15-20 24-36 26-12-4-19-13-19-28Z" fill="#670013" opacity="0.68"/>
  </g>

  <g opacity="0.5" filter="url(#softPaint)">
    <path d="M12 82c19 16 42 24 70 23 27-1 48-9 65-24-13 24-34 38-62 42-33-1-58-15-73-41Z" fill="#450012"/>
    <path d="M34 98c14 10 28 15 44 16 16 0 31-4 45-13-7 11-19 18-36 21-22 1-40-7-53-24Z" fill="#1d0008" opacity="0.65"/>
  </g>

  <g opacity="0.75">
    <path d="M50 37c-4 10-5 21-2 32" stroke="#ff6670" stroke-width="3" stroke-linecap="round" opacity="0.35"/>
    <path d="M78 19c7 15 10 31 9 47" stroke="#ff8790" stroke-width="3" stroke-linecap="round" opacity="0.32"/>
    <path d="M108 33c-5 14-14 25-27 34" stroke="#ff5967" stroke-width="3" stroke-linecap="round" opacity="0.28"/>
    <path d="M26 73c25 11 51 13 78 6" stroke="#ff9298" stroke-width="3" stroke-linecap="round" opacity="0.25"/>
  </g>
</svg>
