<svg xmlns="http://www.w3.org/2000/svg" viewBox="0 0 64 64" fill="none">
  <path d="M32 8c7 0 12 5.7 12 12.7 0 3.9-1.6 7.2-4.1 9.3C37.4 32 34.8 33 32 33s-5.4-1-7.9-3c-2.5-2.1-4.1-5.4-4.1-9.3C20 13.7 25 8 32 8Z" fill="#D76657" stroke="#FFF9F2" stroke-width="3"/>
  <path d="M56 32c0 7-5.7 12-12.7 12-3.9 0-7.2-1.6-9.3-4.1-2-2.5-3-5.1-3-7.9s1-5.4 3-7.9c2.1-2.5 5.4-4.1 9.3-4.1C50.3 20 56 25 56 32Z" fill="#C85445" stroke="#FFF9F2" stroke-width="3"/>
  <path d="M32 56c-7 0-12-5.7-12-12.7 0-3.9 1.6-7.2 4.1-9.3 2.5-2 5.1-3 7.9-3s5.4 1 7.9 3c2.5 2.1 4.1 5.4 4.1 9.3C44 50.3 39 56 32 56Z" fill="#B74236" stroke="#FFF9F2" stroke-width="3"/>
  <path d="M8 32c0-7 5.7-12 12.7-12 3.9 0 7.2 1.6 9.3 4.1 2 2.5 3 5.1 3 7.9s-1 5.4-3 7.9c-2.1 2.5-5.4 4.1-9.3 4.1C13.7 44 8 39 8 32Z" fill="#E07A6C" stroke="#FFF9F2" stroke-width="3"/>
  <circle cx="32" cy="32" r="10" fill="#FFF1C8" stroke="#FFF9F2" stroke-width="3"/>
  <circle cx="32" cy="32" r="3.5" fill="#6F2418"/>
</svg>
