<svg xmlns="http://www.w3.org/2000/svg" width="448" height="448" viewBox="0 0 49 49" shape-rendering="crispEdges"><path fill="#FFFFFF" d="M0 0h49v49H0z"/><path stroke="#111111" d="M2 2.5h7m5 0h1m2 0h3m1 0h2m4 0h1m1 0h1m2 0h1m1 0h2m2 0h1m1 0h7M2 3.5h1m5 0h1m2 0h4m2 0h5m1 0h2m1 0h1m2 0h2m2 0h3m1 0h1m2 0h1m5 0h1M2 4.5h1m1 0h3m1 0h1m1 0h2m6 0h3m4 0h1m1 0h3m2 0h2m1 0h1m1 0h1m2 0h1m1 0h3m1 0h1M2 5.5h1m1 0h3m1 0h1m1 0h2m1 0h1m1 0h1m1 0h1m1 0h1m1 0h1m2 0h1m3 0h1m1 0h1m2 0h1m3 0h2m1 0h1m1 0h3m1 0h1M2 6.5h1m1 0h3m1 0h1m2 0h1m1 0h1m5 0h2m1 0h5m4 0h2m3 0h3m1 0h1m1 0h3m1 0h1M2 7.5h1m5 0h1m3 0h1m1 0h6m2 0h1m3 0h1m3 0h2m1 0h3m4 0h1m5 0h1M2 8.5h7m1 0h1m1 0h1m1 0h1m1 0h1m1 0h1m1 0h1m1 0h1m1 0h1m1 0h1m1 0h1m1 0h1m1 0h1m1 0h1m1 0h1m1 0h1m1 0h7M17 9.5h3m2 0h1m3 0h2m1 0h3m1 0h1m1 0h3M5 10.5h2m1 0h2m2 0h1m1 0h7m1 0h5m3 0h3m10 0h2M2 11.5h3m5 0h1m2 0h1m1 0h1m1 0h2m1 0h1m1 0h1m1 0h1m1 0h1m3 0h5m1 0h9M2 12.5h2m3 0h2m4 0h2m1 0h4m1 0h2m6 0h3m1 0h1m1 0h4m2 0h3m2 0h1M2 13.5h2m2 0h1m2 0h1m2 0h1m2 0h1m3 0h1m3 0h4m1 0h2m4 0h1m6 0h1m2 0h1M3 14.5h1m4 0h1m1 0h3m2 0h3m4 0h7m1 0h3m1 0h1m1 0h2m1 0h5m1 0h2M3 15.5h2m1 0h1m3 0h6m1 0h1m2 0h3m1 0h1m1 0h3m2 0h2m1 0h2m1 0h2m1 0h1m4 0h1M5 16.5h2m1 0h3m1 0h1m1 0h1m1 0h2m1 0h1m1 0h2m1 0h4m6 0h1m2 0h1m2 0h3m1 0h1M2 17.5h1m1 0h4m2 0h1m1 0h2m2 0h1m1 0h2m2 0h1m3 0h2m2 0h1m1 0h1m2 0h4m1 0h1m2 0h4M2 18.5h2m3 0h3m3 0h2m2 0h2m1 0h6m1 0h2m1 0h1m1 0h3m2 0h1m1 0h1M5 19.5h3m1 0h2m1 0h3m2 0h1m1 0h2m1 0h1m3 0h2m2 0h4m1 0h2m1 0h1m4 0h1m2 0h1M3 20.5h2m3 0h2m1 0h3m1 0h1m1 0h2m2 0h1m2 0h1m3 0h1m3 0h1m1 0h1m4 0h1m2 0h3m1 0h1M4 21.5h2m6 0h1m2 0h2m2 0h4m2 0h2m4 0h1m1 0h1m3 0h2m2 0h4M5 22.5h7m2 0h2m3 0h1m2 0h5m1 0h1m1 0h1m5 0h1m1 0h5m2 0h1M2 23.5h1m1 0h3m3 0h6m1 0h1m1 0h4m3 0h1m4 0h1m1 0h1m1 0h4m3 0h2M3 24.5h1m2 0h1m1 0h1m1 0h2m2 0h2m3 0h4m1 0h1m1 0h1m4 0h2m1 0h1m1 0h3m1 0h1m1 0h1m2 0h2M2 25.5h2m2 0h1m3 0h3m1 0h1m2 0h2m1 0h1m1 0h1m3 0h3m1 0h4m3 0h2m3 0h5M3 26.5h2m1 0h5m2 0h1m1 0h1m1 0h1m1 0h2m1 0h7m3 0h12m1 0h1M2 27.5h5m6 0h1m1 0h1m2 0h1m1 0h5m2 0h1m1 0h1m2 0h1m1 0h1m2 0h5m1 0h1M5 28.5h1m1 0h3m1 0h8m5 0h3m2 0h1m1 0h3m1 0h4m2 0h1m1 0h1M3 29.5h1m1 0h1m4 0h2m1 0h1m2 0h2m2 0h1m1 0h2m1 0h1m3 0h4m2 0h1m1 0h2m5 0h3M2 30.5h1m1 0h1m3 0h2m2 0h1m2 0h2m2 0h3m1 0h1m1 0h5m2 0h1m1 0h1m1 0h2m1 0h1m2 0h1m3 0h1M4 31.5h2m1 0h1m1 0h2m2 0h2m1 0h2m1 0h1m1 0h3m1 0h1m1 0h1m2 0h1m2 0h1m1 0h2m1 0h2m1 0h6M2 32.5h5m1 0h1m1 0h2m2 0h2m2 0h4m3 0h1m3 0h1m2 0h4m1 0h2m1 0h3m1 0h1m1 0h1M3 33.5h1m5 0h1m4 0h1m1 0h2m1 0h3m2 0h1m2 0h1m1 0h1m1 0h3m1 0h1m1 0h1m3 0h1m1 0h2m1 0h1M5 34.5h2m1 0h1m2 0h5m1 0h1m1 0h2m1 0h1m2 0h6m2 0h1m1 0h2m1 0h1m2 0h1m1 0h1m1 0h1M4 35.5h1m4 0h1m6 0h1m1 0h3m5 0h1m1 0h3m1 0h2m1 0h2m1 0h7M6 36.5h1m1 0h2m2 0h1m2 0h1m2 0h1m1 0h1m11 0h1m1 0h4m1 0h3m1 0h4M3 37.5h4m3 0h1m1 0h2m2 0h1m1 0h1m2 0h1m6 0h4m1 0h2m1 0h1m2 0h2m1 0h1m1 0h1m1 0h1M2 38.5h1m2 0h2m1 0h3m2 0h1m6 0h7m1 0h5m1 0h2m1 0h6M10 39.5h1m1 0h1m1 0h2m1 0h3m2 0h1m3 0h1m1 0h1m3 0h4m1 0h2m3 0h4M2 40.5h7m1 0h8m1 0h1m1 0h2m1 0h1m1 0h2m1 0h1m3 0h2m2 0h2m1 0h1m1 0h3M2 41.5h1m5 0h1m3 0h1m2 0h1m2 0h5m3 0h2m5 0h1m3 0h2m3 0h3M2 42.5h1m1 0h3m1 0h1m1 0h2m1 0h1m1 0h1m1 0h1m2 0h1m1 0h6m2 0h2m1 0h4m1 0h5m2 0h1M2 43.5h1m1 0h3m1 0h1m1 0h1m1 0h2m1 0h1m1 0h2m3 0h1m3 0h1m1 0h1m1 0h2m2 0h4m3 0h1m3 0h2M2 44.5h1m1 0h3m1 0h1m2 0h1m1 0h2m2 0h4m1 0h3m4 0h2m1 0h2m1 0h1m2 0h1m3 0h1m2 0h2M2 45.5h1m5 0h1m2 0h1m1 0h3m2 0h1m1 0h1m1 0h2m3 0h2m2 0h1m1 0h4m2 0h8M2 46.5h7m2 0h1m3 0h1m1 0h1m2 0h1m3 0h2m2 0h2m1 0h2m1 0h2m1 0h1m2 0h1"/><g transform="translate(24.5 24.5) scale(0.11484375) translate(-64 -64)">  <circle cx="64" cy="64" r="60" fill="#FFFFFF"/>  <circle cx="64" cy="64" r="56" fill="#FFF9F2"/>  <path d="M64 16c14 0 24 11.4 24 25.4 0 7.8-3.2 14.4-8.3 18.7C74.8 64 69.6 66 64 66s-10.8-2-15.7-5.9C43.2 55.8 40 49.2 40 41.4 40 27.4 50 16 64 16Z" fill="#D76657" stroke="#FFF9F2" stroke-width="6"/>  <path d="M112 64c0 14-11.4 24-25.4 24-7.8 0-14.4-3.2-18.7-8.3C64 74.8 62 69.6 62 64s2-10.8 5.9-15.7C72.2 43.2 78.8 40 86.6 40 100.6 40 112 50 112 64Z" fill="#C85445" stroke="#FFF9F2" stroke-width="6"/>  <path d="M64 112c-14 0-24-11.4-24-25.4 0-7.8 3.2-14.4 8.3-18.7C53.2 64 58.4 62 64 62s10.8 2 15.7 5.9C84.8 72.2 88 78.8 88 86.6 88 100.6 78 112 64 112Z" fill="#B74236" stroke="#FFF9F2" stroke-width="6"/>  <path d="M16 64c0-14 11.4-24 25.4-24 7.8 0 14.4 3.2 18.7 8.3C64 53.2 66 58.4 66 64s-2 10.8-5.9 15.7C55.8 84.8 49.2 88 41.4 88 27.4 88 16 78 16 64Z" fill="#E07A6C" stroke="#FFF9F2" stroke-width="6"/>  <circle cx="64" cy="64" r="20" fill="#FFF1C8" stroke="#FFF9F2" stroke-width="6"/>  <circle cx="64" cy="64" r="7" fill="#6F2418"/></g></svg>
