<svg xmlns="http://www.w3.org/2000/svg" width="448" height="448" viewBox="0 0 45 45" shape-rendering="crispEdges"><path fill="#FFFFFF" d="M0 0h45v45H0z"/><path stroke="#111111" d="M2 2.5h7m3 0h2m2 0h1m1 0h4m2 0h1m4 0h2m5 0h7M2 3.5h1m5 0h1m1 0h2m2 0h1m1 0h4m1 0h4m5 0h1m1 0h2m2 0h1m5 0h1M2 4.5h1m1 0h3m1 0h1m2 0h3m2 0h1m2 0h2m1 0h2m1 0h3m1 0h1m1 0h2m3 0h1m1 0h3m1 0h1M2 5.5h1m1 0h3m1 0h1m2 0h2m2 0h2m1 0h2m1 0h1m3 0h1m2 0h1m1 0h2m4 0h1m1 0h3m1 0h1M2 6.5h1m1 0h3m1 0h1m2 0h1m2 0h1m1 0h2m1 0h2m2 0h10m3 0h1m1 0h3m1 0h1M2 7.5h1m5 0h1m1 0h1m1 0h2m1 0h1m1 0h1m1 0h1m2 0h1m3 0h1m1 0h1m1 0h4m2 0h1m5 0h1M2 8.5h7m1 0h1m1 0h1m1 0h1m1 0h1m1 0h1m1 0h1m1 0h1m1 0h1m1 0h1m1 0h1m1 0h1m1 0h1m1 0h1m1 0h7M10 9.5h1m5 0h4m1 0h2m1 0h2m1 0h2m2 0h1m2 0h1M6 10.5h4m1 0h2m1 0h2m6 0h2m1 0h1m1 0h1m1 0h1m1 0h1m1 0h2m1 0h2m3 0h1M4 11.5h1m2 0h1m2 0h1m1 0h3m1 0h6m1 0h4m1 0h3m4 0h5m2 0h1M2 12.5h1m2 0h2m1 0h1m1 0h2m1 0h3m5 0h1m1 0h1m3 0h1m1 0h1m4 0h5m3 0h1M2 13.5h2m1 0h2m5 0h2m1 0h1m1 0h1m1 0h1m2 0h5m3 0h2m1 0h2m1 0h2m1 0h1m2 0h1M2 14.5h1m3 0h1m1 0h1m1 0h1m2 0h2m3 0h4m1 0h2m1 0h2m2 0h3m1 0h2M4 15.5h1m1 0h2m3 0h2m8 0h1m1 0h2m1 0h1m5 0h1m3 0h4m2 0h1M2 16.5h7m1 0h1m5 0h1m1 0h1m2 0h2m2 0h1m1 0h1m1 0h1m1 0h1m3 0h2m1 0h1m1 0h1m1 0h1M4 17.5h3m2 0h2m3 0h4m4 0h2m1 0h1m1 0h5m1 0h1m5 0h1m1 0h2M2 18.5h1m2 0h1m2 0h1m1 0h3m2 0h1m1 0h1m1 0h2m1 0h3m1 0h2m2 0h5m2 0h1m3 0h2M2 19.5h1m1 0h4m4 0h7m4 0h1m1 0h3m1 0h1m1 0h2m2 0h4m2 0h2M3 20.5h1m1 0h1m2 0h3m1 0h6m1 0h2m1 0h2m1 0h1m3 0h2m1 0h1m1 0h2m1 0h1m1 0h2m1 0h1M2 21.5h2m1 0h1m1 0h1m1 0h4m1 0h6m2 0h2m1 0h1m3 0h2m3 0h1m1 0h2m1 0h1m2 0h1M2 22.5h1m3 0h3m1 0h1m1 0h4m2 0h3m1 0h7m6 0h1m5 0h1M2 23.5h2m1 0h1m1 0h1m1 0h1m1 0h3m2 0h7m3 0h4m2 0h1m2 0h6m1 0h1M2 24.5h2m1 0h2m1 0h1m2 0h1m1 0h2m2 0h1m1 0h3m1 0h3m1 0h3m5 0h2m1 0h1m1 0h1m1 0h1M4 25.5h2m4 0h1m1 0h1m2 0h3m2 0h4m1 0h3m3 0h2m4 0h1m1 0h1m2 0h1M2 26.5h2m1 0h2m1 0h1m1 0h1m3 0h1m1 0h1m1 0h1m2 0h2m1 0h1m1 0h2m1 0h1m1 0h1m2 0h1m2 0h1m1 0h1m1 0h1M4 27.5h2m3 0h1m1 0h1m1 0h2m3 0h1m1 0h5m2 0h6m1 0h1m1 0h3m1 0h1m1 0h1M2 28.5h3m1 0h4m2 0h2m4 0h2m2 0h1m2 0h1m1 0h4m1 0h1m1 0h1m7 0h1M2 29.5h1m2 0h1m3 0h4m1 0h4m1 0h3m1 0h5m3 0h1m1 0h4m2 0h1m1 0h2M5 30.5h1m2 0h2m1 0h8m3 0h1m1 0h1m3 0h2m1 0h1m3 0h1m5 0h1M2 31.5h1m1 0h1m1 0h1m2 0h2m4 0h1m3 0h1m3 0h1m3 0h1m2 0h3m3 0h5m1 0h1M4 32.5h2m1 0h2m1 0h2m1 0h2m1 0h6m1 0h5m2 0h1m1 0h1m1 0h2m1 0h4m1 0h1M5 33.5h1m1 0h1m3 0h1m2 0h1m4 0h2m1 0h2m1 0h1m1 0h1m3 0h2m1 0h2m2 0h1m2 0h1M2 34.5h5m1 0h1m2 0h1m1 0h1m1 0h1m1 0h1m1 0h1m3 0h4m1 0h12m1 0h1M10 35.5h4m1 0h1m3 0h1m2 0h2m1 0h1m1 0h1m1 0h2m2 0h2m3 0h1m1 0h1m1 0h1M2 36.5h7m1 0h1m2 0h2m2 0h1m2 0h1m1 0h1m4 0h3m1 0h1m1 0h2m1 0h1m1 0h3m1 0h1M2 37.5h1m5 0h1m1 0h3m3 0h4m3 0h1m3 0h2m2 0h4m3 0h2m1 0h2M2 38.5h1m1 0h3m1 0h1m1 0h1m1 0h6m5 0h3m1 0h1m1 0h1m2 0h8m2 0h1M2 39.5h1m1 0h3m1 0h1m2 0h1m1 0h1m1 0h1m3 0h5m5 0h2m3 0h1m2 0h1m1 0h4M2 40.5h1m1 0h3m1 0h1m2 0h1m2 0h1m2 0h3m1 0h1m1 0h4m2 0h1m1 0h1m1 0h3m3 0h1m1 0h2M2 41.5h1m5 0h1m5 0h1m2 0h6m1 0h1m1 0h2m1 0h4m1 0h1m1 0h2m1 0h1m1 0h2M2 42.5h7m2 0h1m3 0h1m1 0h1m1 0h4m2 0h1m1 0h3m1 0h1m2 0h1m2 0h3m1 0h1"/><g transform="translate(22.5 22.5) scale(0.10546875) translate(-64 -64)">  <circle cx="64" cy="64" r="60" fill="#FFFFFF"/>  <circle cx="64" cy="64" r="56" fill="#FFF9F2"/>  <path d="M64 16c14 0 24 11.4 24 25.4 0 7.8-3.2 14.4-8.3 18.7C74.8 64 69.6 66 64 66s-10.8-2-15.7-5.9C43.2 55.8 40 49.2 40 41.4 40 27.4 50 16 64 16Z" fill="#D76657" stroke="#FFF9F2" stroke-width="6"/>  <path d="M112 64c0 14-11.4 24-25.4 24-7.8 0-14.4-3.2-18.7-8.3C64 74.8 62 69.6 62 64s2-10.8 5.9-15.7C72.2 43.2 78.8 40 86.6 40 100.6 40 112 50 112 64Z" fill="#C85445" stroke="#FFF9F2" stroke-width="6"/>  <path d="M64 112c-14 0-24-11.4-24-25.4 0-7.8 3.2-14.4 8.3-18.7C53.2 64 58.4 62 64 62s10.8 2 15.7 5.9C84.8 72.2 88 78.8 88 86.6 88 100.6 78 112 64 112Z" fill="#B74236" stroke="#FFF9F2" stroke-width="6"/>  <path d="M16 64c0-14 11.4-24 25.4-24 7.8 0 14.4 3.2 18.7 8.3C64 53.2 66 58.4 66 64s-2 10.8-5.9 15.7C55.8 84.8 49.2 88 41.4 88 27.4 88 16 78 16 64Z" fill="#E07A6C" stroke="#FFF9F2" stroke-width="6"/>  <circle cx="64" cy="64" r="20" fill="#FFF1C8" stroke="#FFF9F2" stroke-width="6"/>  <circle cx="64" cy="64" r="7" fill="#6F2418"/></g></svg>
